<svg width="444" height="512" viewBox="0 0 444 512" fill="none" xmlns="http://www.w3.org/2000/svg">
<path d="M185.89 208.403L189.257 204.268C191.674 201.83 194.264 199.816 197.026 198.438C201.602 197.166 206.695 198.65 210.321 203.102C213.083 206.494 214.464 210.947 214.464 215.505C214.464 220.063 213.083 224.41 210.321 227.908L187.316 256.052C187.387 256.141 187.459 256.23 187.531 256.318C188.049 256.954 188.653 257.696 189.257 258.226L210.321 284.092C215.846 290.983 215.846 302.007 210.321 308.898C207.558 312.29 203.933 313.986 200.221 313.986C196.595 313.986 192.969 312.29 190.12 308.898L157.144 268.403C151.619 261.618 151.619 250.488 157.144 243.703L185.89 208.403Z" fill="#3E416D"/>
<path d="M262.404 292.089C261.245 296.201 259.449 300.112 257.024 303.596L253.657 307.73C251.24 310.168 248.65 312.183 245.888 313.561C241.312 314.833 236.219 313.349 232.593 308.896C229.831 305.504 228.45 301.052 228.45 296.493C228.45 292.041 229.831 287.589 232.593 284.091L255.642 255.893C255.585 255.822 255.527 255.751 255.47 255.68C254.952 255.044 254.348 254.302 253.743 253.772L232.68 227.906C227.155 221.016 227.155 209.885 232.68 203.101C235.442 199.708 239.068 198.012 242.78 198.012C246.492 198.012 250.031 199.708 252.88 203.101L285.857 243.596C291.382 250.38 291.382 261.511 285.857 268.295L257.11 303.596C259.508 300.121 261.273 296.209 262.404 292.089Z" fill="#3E416D"/>
<path d="M210.321 308.899C207.558 312.291 203.933 313.987 200.221 313.987C196.595 313.987 192.969 312.291 190.12 308.899L157.144 268.404C151.619 261.619 151.619 250.488 157.144 243.704L185.89 208.403C176.308 222.29 176.826 243.174 187.531 256.319C188.049 256.955 188.653 257.697 189.257 258.227L210.321 284.093C215.846 290.983 215.846 302.008 210.321 308.899Z" fill="#3E416D"/>
<path d="M187.572 206.191C188.192 205.443 188.723 204.802 189.343 204.162L185.89 208.326C186.421 207.686 186.953 206.938 187.572 206.191Z" fill="#0D1026"/>
<path d="M232.679 203.101C235.442 199.708 239.067 198.012 242.779 198.012C246.492 198.012 250.031 199.708 252.88 203.101L285.856 243.596C291.381 250.38 291.381 261.511 285.856 268.295L257.11 303.596C266.692 289.709 266.174 268.825 255.469 255.68C254.952 255.044 254.347 254.302 253.743 253.772L232.679 227.906C227.154 221.016 227.154 209.885 232.679 203.101Z" fill="#3E416D"/>
<path d="M255.514 305.731C254.894 306.478 254.363 307.119 253.743 307.76L257.196 303.595C256.665 304.343 256.134 305.09 255.514 305.731Z" fill="#0D1026"/>
<path d="M384.401 418.064C420.91 396.985 443.4 358.03 443.4 315.873V196.127C443.4 153.97 420.91 115.015 384.401 93.9362L280.7 34.0643C244.191 12.9853 199.209 12.9853 162.699 34.0643L58.9995 93.9363C22.4904 115.015 0 153.97 0 196.127V315.873C0 358.03 22.4905 396.985 58.9995 418.064L162.7 477.936C199.209 499.015 244.191 499.015 280.701 477.936L384.401 418.064ZM90.5 248.449C90.5 206.28 113.003 167.316 149.528 146.242L162.728 138.626C199.223 117.569 244.177 117.569 280.672 138.626L293.872 146.242C330.397 167.316 352.9 206.28 352.9 248.449V263.551C352.9 305.72 330.397 344.684 293.872 365.758L280.672 373.374C244.177 394.431 199.223 394.431 162.728 373.374L149.528 365.758C113.003 344.684 90.5 305.72 90.5 263.551V248.449Z" fill="#3E416D"/>
</svg>
